<svg viewBox="0 0 100 100" fill="none" xmlns="http://www.w3.org/2000/svg">
  <defs>
    <linearGradient id="favShieldGrad" x1="0%" y1="0%" x2="100%" y2="100%">
      <stop offset="0%" stop-color="#2563EB" />
      <stop offset="50%" stop-color="#4F46E5" />
      <stop offset="100%" stop-color="#7C3AED" />
    </linearGradient>
    <linearGradient id="favStarGrad" x1="0%" y1="0%" x2="100%" y2="100%">
      <stop offset="0%" stop-color="#38BDF8" />
      <stop offset="50%" stop-color="#06B6D4" />
      <stop offset="100%" stop-color="#3B82F6" />
    </linearGradient>
  </defs>
  <path d="M50 5 L88 24 V70 L50 95 L12 70 V24 Z" fill="url(#favShieldGrad)" />
  <path d="M50 12 L81 28 V66 L50 88 L19 66 V28 Z" fill="#0F172A" opacity="0.88" />
  <path d="M50 24 C50 38 38 50 24 50 C38 50 50 62 50 76 C50 62 62 50 76 50 C62 50 50 38 50 24 Z" fill="url(#favStarGrad)" />
  <circle cx="50" cy="50" r="5" fill="#FFFFFF" />
  <circle cx="50" cy="50" r="2.5" fill="#2563EB" />
</svg>
